Coordinates
version=1
nRows=7
nColumns=46
inDegrees=yes

Units are S.I. units (second, meters, Newtons, ...)
Angles are in degrees.

endheader
time	pelvis_tilt	pelvis_list	pelvis_rotation	pelvis_tx	pelvis_ty	pelvis_tz	bb_angle	bb_tx	bb_ty	bb_tz	hip_flexion_r	hip_adduction_r	hip_rotation_r	knee_angle_r	knee_angle_r_beta	ankle_angle_r	subtalar_angle_r	mtp_angle_r	crank_angle_r	hip_flexion_l	hip_adduction_l	hip_rotation_l	knee_angle_l	knee_angle_l_beta	ankle_angle_l	subtalar_angle_l	mtp_angle_l	crank_angle_l	lumbar_extension	lumbar_bending	lumbar_rotation	arm_flex_r	arm_add_r	arm_rot_r	elbow_flex_r	pro_sup_r	wrist_flex_r	wrist_dev_r	arm_flex_l	arm_add_l	arm_rot_l	elbow_flex_l	pro_sup_l	wrist_flex_l	wrist_dev_l
      0.00000000	    -20.85974948	     -0.01706707	      1.45874497	      0.05620507	      1.13525276	     -0.23864379	      0.00000000	      0.50000000	      0.00000000	      0.25000000	     79.88259590	     -2.00367847	      5.37897219	     72.11799029	      1.25869638	      4.25586699	     -9.72188925	      0.00000000	      0.00000000	     58.98142938	     -3.00651879	      2.05035086	     80.32296871	      1.40190027	     18.26590358	     -7.93850941	      0.00000000	      0.00000000	    -61.22043387	      1.20929133	     -0.94429328	     89.24024041	    -10.20851276	     20.99006332	     71.53553890	     31.24357918	      0.00000000	      0.00000000	     89.37200006	    -14.55275968	     23.94426527	     71.54136019	     31.85472439	      0.00000000	      0.00000000
      0.00500000	    -20.78900742	     -0.03838265	      1.48636410	      0.05619632	      1.13543408	     -0.23874873	      0.00000000	      0.50000000	      0.00000000	      0.25000000	     79.77996200	     -2.03714306	      5.33125024	     72.08788075	      1.25817087	      4.26375658	     -9.79865066	      0.00000000	      0.00000000	     58.91256573	     -2.97766508	      2.09821410	     80.32712771	      1.40197286	     18.25027885	     -8.02631911	      0.00000000	      0.00000000	    -61.39576305	      1.27501101	     -0.90253035	     89.22104782	    -10.10342068	     20.52404104	     71.79326170	     32.20268322	      0.00000000	      0.00000000	     89.34896859	    -14.41075463	     23.43668706	     71.77895738	     32.76452976	      0.00000000	      0.00000000
      0.01000000	    -20.72614480	     -0.02628630	      1.50229295	      0.05616567	      1.13548088	     -0.23883182	      0.00000000	      0.50000000	      0.00000000	      0.25000000	     79.70600053	     -2.07611623	      5.32100171	     72.06892349	      1.25784000	      4.22811072	     -9.81991460	      0.00000000	      0.00000000	     58.85741436	     -2.95251969	      2.09277970	     80.36237801	      1.40258809	     18.34878385	     -7.99547877	      0.00000000	      0.00000000	    -61.42526160	      1.26858374	     -0.90595393	     89.23339158	    -10.13132298	     20.48365519	     71.52348358	     32.99003247	      0.00000000	      0.00000000	     89.36565603	    -14.34561746	     23.41346203	     71.44435991	     33.50776715	      0.00000000	      0.00000000
      0.01500000	    -20.75636499	      0.01255838	      1.48378078	      0.05614032	      1.13533728	     -0.23880087	      0.00000000	      0.50000000	      0.00000000	      0.25000000	     79.74591021	     -2.06450822	      5.39039976	     72.08066133	      1.25804487	      4.26745441	     -9.72424406	      0.00000000	      0.00000000	     58.90200381	     -2.94626862	      2.05695982	     80.38899367	      1.40305262	     18.31666048	     -7.97731998	      0.00000000	      0.00000000	    -61.35722477	      1.24897391	     -1.02705391	     89.22561637	     -9.98396747	     20.48294536	     71.30911448	     33.60319589	      0.00000000	      0.00000000	     89.38603253	    -14.07220492	     23.00875132	     71.08569657	     34.03228210	      0.00000000	      0.00000000
      0.02000000	    -20.90141803	     -0.27021344	      0.92100191	      0.05618454	      1.13411445	     -0.23681672	      0.00000000	      0.50000000	      0.00000000	      0.25000000	     79.95248201	     -1.17001192	      5.41324520	     72.13461475	      1.25898653	      4.30080034	     -9.79861925	      0.00000000	      0.00000000	     59.23802121	     -2.93734248	      2.92033084	     80.67073814	      1.40796999	     17.59597771	     -8.05220620	      0.00000000	      0.00000000	    -61.14214510	      1.16120269	     -0.42539282	     89.26302556	     -9.72408858	     20.74481429	     71.30111372	     33.64771816	      0.00000000	      0.00000000	     89.35882587	    -14.25683761	     22.91532350	     70.87149787	     34.01263980	      0.00000000	      0.00000000
      0.02500000	    -21.05015820	     -0.81397799	      0.61634112	      0.05623111	      1.13302289	     -0.23550600	      0.00000000	      0.50000000	      0.00000000	      0.25000000	     80.11690595	     -0.61382944	      4.96879504	     72.07758418	      1.25799116	      4.11159425	     -9.88738570	      0.00000000	      0.00000000	     59.72307474	     -3.38017238	      3.45098768	     81.03027784	      1.41424514	     17.16012528	     -8.44971708	      0.00000000	      0.00000000	    -60.88748528	      1.20914525	      0.15513351	     89.24425270	     -9.65532953	     20.95355543	     71.15601483	     33.68120340	      0.00000000	      0.00000000	     89.33500076	    -14.31424497	     22.88614505	     70.69067339	     34.02514675	      0.00000000	      0.00000000
      0.03000000	    -20.80813316	      0.04331770	      1.45881060	      0.05591735	      1.13527279	     -0.23886565	      0.00000000	      0.50000000	      0.00000000	      0.25000000	     79.76102493	     -2.04772029	      5.45802167	     71.95865530	      1.25591546	      4.15740977	     -9.74866702	      0.00000000	      0.00000000	     59.02318693	     -2.93613245	      2.03048964	     80.52531171	      1.40543182	     18.34500578	     -7.84787323	      0.00000000	      0.00000000	    -61.24395922	      1.21695561	     -0.86798344	     89.24183222	    -10.32623342	     20.90174534	     71.03310759	     33.74087456	      0.00000000	      0.00000000	     89.37199497	    -14.31188238	     23.64704554	     70.81465228	     34.18538238	      0.00000000	      0.00000000
